<svg xmlns="http://www.w3.org/2000/svg" enable-background="new 0 0 64 64" viewBox="0 0 64 64">
    <path fill="#602f7b" d="M62.9,57.3c0,0-13.5,6.6-30.4,6.7h-1c-16.9-0.1-30.4-6.7-30.4-6.7c0.3-3.5,1.8-7.5,5.2-8.9
		c3.7-1.5,7.6-3,10.8-5.5c0.6-0.5,1.8-1.2,1.8-2.1c0-0.3,0-0.7,0-1c1.8,3.3,4.3,6.3,7.5,8c1.9,1,3.8,1.5,5.6,1.4
		c5.5-0.1,10.4-4.6,13.1-9.5c0,0.3,0,0.7,0,1c0,0.9,1.2,1.6,1.8,2.1c0.5,0.4,1,0.7,1.5,1c2.9,1.9,6.1,3.1,9.3,4.4
		C61.2,49.8,62.6,53.9,62.9,57.3z" />
    <path fill="#fff" d="M32,62.4c14.4-0.2,29.5-5.8,29.5-5.8s0.3-5.9-6.4-7.6c-4.1-1.1-8.2,0.4-11.9,2.2c-3.4,1.7-6.5,3.7-10.4,3.9
			c-0.3,0-0.5,0-0.8,0c-0.3,0-0.5,0-0.8,0c-3.9-0.2-7-2.2-10.4-3.9c-3.7-1.8-7.8-3.2-11.9-2.2c-6.7,1.8-6.4,7.6-6.4,7.6
			S17.6,62.2,32,62.4z" opacity=".35" />
    <path fill="#070808" d="M61.5,56.6c0,0-3.4,1.3-8.5,2.6c-1.7-1.3-7.8-7.9-8.6-8.7c3.3-1.5,7-2.5,10.6-1.5
			C61.7,50.7,61.5,56.6,61.5,56.6z" opacity=".11" />
    <path fill="#fff"
        d="M16.8,49.4c-1.2,0.4-2.5,0.7-3.7,1.1c-1.4,0.4-2.8,0.9-4.2,1.1c-0.6,0.1-1.2,0.1-1.8,0.4
			c-0.6,0.2-1,0.6-1.5,1c-0.4,0.4-0.9,0.8-1.5,1c-0.1,0-1.1,0-1.1,0.1c0.6-1.8,2.2-4.1,6-5.1C11.6,48.2,14.3,48.6,16.8,49.4z"
        opacity=".35" />
    <path fill="none"
        d="M32.1 49.4c0 0-.1 0-.2 0M32.1 54c-.1 0-.1 0-.1 0M32.1 59.4c-.1 0-.1-.1-.2-.2M32 50.4C32 50.4 32 50.4 32 50.4" />
    <path fill="#793f97" d="M46.2,37.5c0.1-0.2,0.2-0.5,0.3-0.7c3.5-8.5-0.2-13.7-0.2-13.7c1.7-2.2,0.8-6.4,0.8-6.4
			c-0.4,6.6-5,10.5-11.4,11.1c-5.7,0.5-13.3,0.4-16.9-4.8c-1.2-1.7-1.7-4.3-1.9-6.3c0,0-1,4.2,0.8,6.4c0,0-1.5,2.2-1.6,6.1
			c-0.1,1.9,0.2,4.1,1.2,6.7c0.1,0.3,0.2,0.6,0.3,0.9c0.1,0.2,0.2,0.5,0.3,0.7c-0.6-0.2-1.1-0.4-1.7-0.6c-3.4-1.6-6-5-6.6-8.6
			c-0.1-0.8-0.2-1.6-0.1-2.4c0.7-8.5,5.5-18.7,13-23.3c5.7-3.4,13.6-3.5,19.3,0c7.5,4.5,12.3,14.8,13,23.2
			C55,31,51.2,36.1,46.2,37.5z" />
    <path d="M46.5,36.8c-0.1,0.2-0.2,0.5-0.3,0.7c-0.2,0.4-0.3,0.8-0.5,1.2c-0.2,0.4-0.4,0.7-0.6,1.1c-2.8,4.9-7.6,9.4-13.1,9.5
			c-1.8,0-3.7-0.4-5.6-1.4c-3.2-1.7-5.7-4.8-7.5-8c-0.4-0.8-0.8-1.5-1.1-2.3c-0.1-0.2-0.2-0.5-0.3-0.7c-0.1-0.3-0.2-0.6-0.3-0.9
			c0-0.1-0.1-0.3-0.1-0.4c-0.1-0.2-0.2-0.5-0.2-0.7c0,0,0-0.1,0-0.1c-0.1-0.3-0.2-0.5-0.2-0.8c0-0.1,0-0.2-0.1-0.2
			c0-0.2-0.1-0.3-0.1-0.5c0-0.2-0.1-0.4-0.1-0.6c0,0,0,0,0-0.1c0-0.2-0.1-0.5-0.1-0.7c0-0.3-0.1-0.5-0.1-0.8
			C16,30.4,16,29.8,16,29.3c0-2,0.5-3.5,0.9-4.5c0.1-0.3,0.2-0.5,0.3-0.7c0.1-0.2,0.2-0.3,0.2-0.4c0.2-0.3,0.3-0.4,0.3-0.4
			c-1.8-2.2-0.7-6.4-0.7-6.4c0.1,2.1,0.7,4.6,1.9,6.3c0.1,0.1,0.1,0.2,0.2,0.2c1.6,2.1,3.8,3.4,6.3,4.1c3.4,0.9,7.2,0.8,10.4,0.5
			c1.4-0.1,2.7-0.4,3.9-0.9c0.3-0.1,0.7-0.3,1-0.4c0.3-0.2,0.6-0.3,0.9-0.5c0.3-0.2,0.6-0.4,0.9-0.6c0.3-0.2,0.6-0.4,0.8-0.6
			c0.3-0.2,0.5-0.5,0.8-0.7c0.4-0.4,0.7-0.8,1-1.2c0,0,0,0,0.1-0.1c1.2-1.7,1.9-3.7,2-6.2c0,0,1,4.2-0.7,6.4
			C46.3,23.1,50,28.3,46.5,36.8z" />
    <path fill="#fff"
        d="M23 32.8c0 0 2.9-3.4 6.3 0C29.3 32.8 26.2 35 23 32.8zM41 32.8c0 0-2.9-3.4-6.3 0C34.7 32.8 37.8 35 41 32.8z" />
    <polygon fill="#934c9c"
        points="32 13.6 35.1 18.4 41.8 13.6 41.1 18.4 46 15.4 45 20.8 44.8 17.8 39 23.1 38.6 19.2 34.3 22.8 32 19.5 29.7 22.8 25.4 19.2 25 23.1 19.2 17.8 19 20.8 18 15.4 22.9 18.4 22.2 13.6 28.9 18.4" />
    <path fill="#e9be92" d="M32,48.1c0.3,0,0.6-0.1,0.9-0.1c0.5-0.1,0.9-0.1,1.4-0.2c0.9-0.2,1.7-0.4,2.5-0.8c1.5-0.7,2.7-1.8,3.8-3
			c1-1.1,1.9-2.2,2.6-3.4c0.6-1,1.1-2,1.6-3c0.2-0.4,0.3-0.9,0.5-1.3c0,0,0,0,0-0.1c0-0.1-3.4,1.7-8.5,1.4c-0.5-0.3-1-0.5-1.6-0.8
			c-0.5-0.2-1-0.4-1.5-0.6c-0.4-0.1-0.8-0.4-1.2-0.5c-0.5-0.1-1,0.2-1.5,0.4c-1,0.4-1.9,0.7-2.9,1.2c-0.1,0.1-0.4,0.3-0.5,0.3
			c-5.1,0.3-8.6-1.5-8.5-1.4c0.1,0.4,0.3,0.8,0.4,1.1c0.4,1,0.9,1.9,1.4,2.8c0.7,1.2,1.5,2.4,2.4,3.4c1,1.2,2.1,2.3,3.5,3.1
			c1.5,0.9,3.2,1.3,4.9,1.6C31.6,48.1,31.8,48.1,32,48.1z" />
    <path d="M35.1,41.3c-0.3,0-0.6,0-0.9-0.1c-0.5,0-0.9-0.1-1.3,0.2c-0.3,0.2-0.6,0.5-1,0.5c-0.4,0-0.7-0.3-1-0.5
			c-0.4-0.3-0.8-0.2-1.3-0.2c-0.3,0-0.6,0-0.9,0.1c0.1-0.1,0.1-0.1,0.2-0.2c0.3-0.2,0.6-0.4,1-0.6c0.2-0.1,0.4-0.2,0.6-0.2
			c0.3,0,0.5,0.2,0.7,0.3c0.2,0.1,0.5,0.1,0.7,0.2c0.2,0,0.5-0.1,0.7-0.2c0.2-0.1,0.4-0.2,0.7-0.3c0.2,0,0.4,0.1,0.6,0.2
			c0.4,0.2,0.7,0.3,1,0.6C34.9,41.1,35,41.2,35.1,41.3z" />
    <path fill="#602f7b"
        d="M17.8 37.5c-.6-.2-1.1-.4-1.7-.6-3.4-1.6-6-5-6.6-8.6 1.9.6 4.1 1.1 6.5 1-.1 1.9.2 4.1 1.2 6.7.1.3.2.6.3.9C17.6 37.1 17.7 37.3 17.8 37.5zM46.2 37.5c.6-.2 1.1-.4 1.7-.6 3.4-1.6 6-5 6.6-8.6-1.9.6-4.1 1.1-6.5 1 .1 1.9-.2 4.1-1.2 6.7-.1.3-.2.6-.3.9C46.4 37.1 46.3 37.3 46.2 37.5z" />
</svg>